<svg xmlns="http://www.w3.org/2000/svg" width="64" height="64" viewBox="0 0 64 64">
  <path d="M31.72,34.29 L31.71,34.33 L31.72,34.45 L31.74,34.56 L31.78,34.68 L31.84,34.79 L31.91,34.89 L32.0,34.98 L32.1,35.05 L32.21,35.11 L32.33,35.15 L32.45,35.17 L32.58,35.18 L32.71,35.16 L32.84,35.13 L32.96,35.08 L33.07,35.01 L33.17,34.92 L33.26,34.82 L33.33,34.7 L33.39,34.58 L33.42,34.44 L33.44,34.3 L33.43,34.16 L33.41,34.03 L33.36,33.89 L33.29,33.76 L33.2,33.65 L33.1,33.55 L32.98,33.46 L32.85,33.39 L32.71,33.34 L32.56,33.32 L32.41,33.31 L32.26,33.33 L32.11,33.37 L31.97,33.44 L31.84,33.52 L31.72,33.62 L31.62,33.74 L31.54,33.88 L31.47,34.03 L31.43,34.18 L31.42,34.35 L31.43,34.51 L31.46,34.67 L31.52,34.83 L31.6,34.98 L31.7,35.11 L31.82,35.23 L31.96,35.33 L32.12,35.41 L32.28,35.46 L32.45,35.49 L32.63,35.5 L32.81,35.47 L32.98,35.42 L33.14,35.35 L33.3,35.25 L33.43,35.13 L33.55,34.98 L33.65,34.82 L33.72,34.65 L33.76,34.47 L33.78,34.28 L33.77,34.08 L33.73,33.9 L33.66,33.71 L33.57,33.54 L33.45,33.38 L33.3,33.25 L33.14,33.13 L32.96,33.04 L32.76,32.98 L32.56,32.95 L32.35,32.94 L32.14,32.97 L31.94,33.03 L31.75,33.12 L31.57,33.24 L31.42,33.38 L31.28,33.55 L31.17,33.74 L31.09,33.94 L31.03,34.16 L31.02,34.38 L31.03,34.61 L31.08,34.83 L31.16,35.04 L31.28,35.24 L31.42,35.42 L31.59,35.58 L31.78,35.72 L32.0,35.82 L32.22,35.89 L32.46,35.93 L32.7,35.93 L32.94,35.89 L33.18,35.82 L33.4,35.71 L33.61,35.57 L33.8,35.4 L33.95,35.2 L34.08,34.98 L34.18,34.74 L34.23,34.49 L34.25,34.23 L34.23,33.97 L34.17,33.71 L34.08,33.46 L33.94,33.23 L33.77,33.02 L33.57,32.83 L33.34,32.68 L33.09,32.56 L32.82,32.48 L32.55,32.44 L32.26,32.44 L31.98,32.48 L31.71,32.57 L31.44,32.7 L31.2,32.86 L30.99,33.06 L30.81,33.3 L30.66,33.56 L30.55,33.84 L30.49,34.13 L30.47,34.44 L30.49,34.75 L30.56,35.05 L30.68,35.34 L30.84,35.61 L31.04,35.86 L31.28,36.07 L31.55,36.25 L31.84,36.39 L32.15,36.48 L32.48,36.52 L32.81,36.52 L33.14,36.46 L33.46,36.36 L33.77,36.21 L34.05,36.01 L34.3,35.77 L34.51,35.5 L34.68,35.19 L34.8,34.86 L34.88,34.52 L34.9,34.16 L34.86,33.8 L34.78,33.45 L34.64,33.11 L34.45,32.79 L34.21,32.51 L33.93,32.26 L33.61,32.05 L33.27,31.89 L32.9,31.79 L32.52,31.74 L32.13,31.75 L31.74,31.81 L31.37,31.94 L31.01,32.12 L30.69,32.35 L30.4,32.63 L30.15,32.96 L29.96,33.32 L29.82,33.71 L29.73,34.11 L29.71,34.53 L29.76,34.95 L29.86,35.36 L30.03,35.76 L30.25,36.13 L30.53,36.46 L30.86,36.75 L31.24,36.99 L31.64,37.17 L32.07,37.29 L32.52,37.34 L32.98,37.33 L33.43,37.24 L33.86,37.09 L34.28,36.88 L34.66,36.6 L34.99,36.27 L35.28,35.89 L35.5,35.47 L35.66,35.01 L35.76,34.53 L35.78,34.04 L35.72,33.55 L35.59,33.07 L35.4,32.61 L35.13,32.18 L34.8,31.8 L34.41,31.46 L33.97,31.19 L33.49,30.98 L32.99,30.84 L32.46,30.78 L31.93,30.8 L31.4,30.9 L30.89,31.08 L30.41,31.34 L29.97,31.67 L29.58,32.06 L29.25,32.51 L28.99,33.01 L28.81,33.54 L28.7,34.1 L28.68,34.67 L28.75,35.25 L28.91,35.81 L29.14,36.35 L29.46,36.85 L29.85,37.29 L30.31,37.68 L30.83,38.0 L31.39,38.24 L31.98,38.39 L32.6,38.46 L33.22,38.43 L33.84,38.31 L34.43,38.09 L34.99,37.79 L35.5,37.4 L35.96,36.94 L36.34,36.41 L36.64,35.82 L36.85,35.2 L36.96,34.54 L36.98,33.87 L36.89,33.19 L36.71,32.54 L36.42,31.91 L36.05,31.33 L35.58,30.81 L35.04,30.36 L34.44,29.99 L33.78,29.72 L33.08,29.54 L32.36,29.48 L31.63,29.52 L30.91,29.67 L30.22,29.92 L29.57,30.29 L28.97,30.74 L28.44,31.29 L28.0,31.91 L27.66,32.6 L27.42,33.34 L27.29,34.11 L27.28,34.89 L27.38,35.68 L27.61,36.45 L27.95,37.17 L28.39,37.85 L28.94,38.46 L29.58,38.98 L30.29,39.4 L31.06,39.72 L31.88,39.91 L32.73,39.99 L33.58,39.93 L34.42,39.75 L35.23,39.44 L35.99,39.01 L36.68,38.47 L37.29,37.83 L37.8,37.09 L38.2,36.28 L38.47,35.42 L38.62,34.52 L38.62,33.6 L38.49,32.68 L38.22,31.78 L37.82,30.93 L37.29,30.15 L36.64,29.44 L35.89,28.84 L35.05,28.35 L34.15,27.99 L33.19,27.76 L32.2,27.69 L31.2,27.76 L30.22,27.98 L29.27,28.35 L28.38,28.86 L27.58,29.5 L26.87,30.26 L26.28,31.13 L25.82,32.08 L25.51,33.09 L25.35,34.15 L25.35,35.23 L25.52,36.3 L25.84,37.34 L26.32,38.34 L26.95,39.25 L27.72,40.07 L28.6,40.77 L29.59,41.33 L30.65,41.75 L31.78,42.0 L32.94,42.08 L34.1,41.99 L35.25,41.72 L36.36,41.27 L37.39,40.67 L38.33,39.91 L39.15,39.01 L39.83,38.0 L40.35,36.88 L40.71,35.69 L40.88,34.45 L40.87,33.19 L40.67,31.93 L40.28,30.71 L39.71,29.56 L38.96,28.49 L38.06,27.54 L37.02,26.73 L35.86,26.08 L34.61,25.61 L33.29,25.32 L31.93,25.24 L30.56,25.36 L29.22,25.69 L27.94,26.22 L26.73,26.94 L25.64,27.83 L24.69,28.89 L23.9,30.09 L23.3,31.4 L22.89,32.8 L22.7,34.25 L22.73,35.73 L22.98,37.19 L23.45,38.62 L24.13,39.97 L25.01,41.21 L26.07,42.31 L27.3,43.25 L28.67,44.0 L30.14,44.54 L31.69,44.86 L33.27,44.94 L34.87,44.79 L36.44,44.39 L37.94,43.76 L39.34,42.91 L40.61,41.84 L41.71,40.6 L42.62,39.19 L43.31,37.65 L43.77,36.01 L43.99,34.3 L43.94,32.58 L43.63,30.86 L43.07,29.2 L42.26,27.63 L41.22,26.18 L39.96,24.9 L38.51,23.82 L36.91,22.95 L35.18,22.33 L33.37,21.98 L31.5,21.89 L29.64,22.09 L27.81,22.57 L26.06,23.32 L24.43,24.34 L22.95,25.59 L21.67,27.06 L20.62,28.72 L19.82,30.53 L19.3,32.45 L19.07,34.45 L19.14,36.47 L19.52,38.48 L20.19,40.42 L21.16,42.25 L22.39,43.93 L23.88,45.41 L25.58,46.67 L27.47,47.67 L29.5,48.38 L31.62,48.78 L33.8,48.85 L35.99,48.6 L38.12,48.03 L40.17,47.13 L42.07,45.93 L43.78,44.44 L45.26,42.71 L46.47,40.76 L47.39,38.63 L47.98,36.37 L48.23,34.03 L48.13,31.67 L47.67,29.32 L46.86,27.06 L45.72,24.93 L44.25,22.97 L42.5,21.25 L40.49,19.79 L38.28,18.65 L35.89,17.84 L33.4,17.39 L30.85,17.32 L28.29,17.63 L25.8,18.33 L23.42,19.4 L21.2,20.83 L19.22,22.58 L17.5,24.63 L16.1,26.92 L15.04,29.42 L14.37,32.07 L14.1,34.81 L14.25,37.58 L14.81,40.31 L15.78,42.96 L17.14,45.44 L18.87,47.72 L20.94,49.72 L23.3,51.4 L25.91,52.72 L28.71,53.65 L31.63,54.15 L34.62,54.2 L37.6,53.81 L40.52,52.97 L43.3,51.69 L45.87,50.0 L48.18,47.93 L50.17,45.52 L51.79,42.82 L53.0,39.88 L53.76,36.77 L54.05,33.57 L53.85,30.33 L53.17,27.13 L52.01,24.04 L50.39,21.15 L48.34,18.5 L45.9,16.18 L43.11,14.23 L40.05,12.71 L36.77,11.66 L33.34,11.1 L29.84,11.07 L26.35,11.56 L22.95,12.57 L19.71,14.09 L16.71,16.09 L14.03,18.54 L11.72,21.38 L9.85,24.56 L8.47,28.01 L7.61,31.65 L7.3,35.41 L7.56,39.2 L8.39,42.94 L9.78,46.54 L11.71,49.91 L14.13,52.99 L17.01,55.68 L20.29,57.93 L23.89,59.68 L27.74,60.89 L31.76,61.5 L35.86,61.51 L39.94,60.9 L43.91,59.69 L47.69,57.87 L51.18,55.5 L54.3,52.61 L56.97,49.26 L59.12,45.52 L60.71,41.47 L61.68,37.19 L62.0,32.79 L61.66,28.36 L60.65,23.99 L58.99,19.79 L56.7,15.86 L53.83,12.29 L50.43,9.16 L46.58,6.56 L42.34,4.54 L37.82,3.18 L33.11,2.49 L28.32,2.52 L23.55,3.27 L18.91,4.74 L14.5,6.9 L10.44,9.71 L6.82,13.13 L3.73,17.08" fill="none" stroke="#ff00ff" stroke-width="1.5" stroke-linecap="round"/>
</svg>